<svg width="63" height="53" viewBox="0 0 63 53" fill="none" xmlns="http://www.w3.org/2000/svg">
    <path d="M41.0138 22.0001C40.4502 22.0916 39.986 22.1345 39.621 22.1288C39.2858 22.1182 39.0247 22.0957 38.8377 22.061C38.3065 21.9524 38.0319 21.8346 38.0139 21.7075C37.9734 21.4218 39.4658 21.0332 42.4912 20.5418C44.1225 20.2768 45.6392 19.7382 47.0413 18.9256C48.4434 18.1131 49.6894 17.1636 50.7796 16.0768C51.8949 14.9535 52.8105 13.8139 53.5268 12.658C54.2385 11.4702 54.7071 10.387 54.9325 9.40819C55.0592 8.80282 55.0955 8.30959 55.0415 7.9285C54.8885 6.84872 54.3087 5.96824 53.3018 5.28705C52.3203 4.56927 51.0519 4.07676 49.4968 3.80948C47.9419 3.54222 46.2152 3.56272 44.3169 3.87101C42.6855 4.13595 40.9693 4.65835 39.1682 5.4382C37.3922 6.18147 35.659 7.22644 33.9685 8.57311C33.7788 8.73387 33.5253 8.87249 33.2081 8.98899C32.8863 9.07374 32.5475 9.14502 32.1915 9.20282C31.7467 9.27508 31.3246 9.29489 30.9256 9.26223C30.5561 9.22476 30.3579 9.11075 30.3309 8.9202C30.2949 8.66614 30.5362 8.33456 31.0548 7.92545C32.8801 6.45942 34.8393 5.29652 36.9326 4.43674C39.0259 3.57697 41.1106 2.97848 43.1868 2.64129C45.2038 2.31372 47.1462 2.20945 49.014 2.32846C50.8817 2.44747 52.5644 2.75899 54.062 3.26302C55.555 3.73529 56.7546 4.38517 57.6607 5.21267C58.592 6.00358 59.1319 6.92305 59.2804 7.97107C59.3614 8.54271 59.3089 9.13603 59.1229 9.75102C58.76 11.0445 57.9476 12.3785 56.6859 13.753C55.4196 15.0959 53.8536 16.3573 51.9878 17.5375C50.122 18.7177 48.1106 19.7266 45.9535 20.5643C44.8579 20.9696 43.9015 21.2873 43.0846 21.5175C42.2973 21.7429 41.607 21.9037 41.0138 22.0001ZM33.8836 35.9261C33.6464 35.9646 33.3331 35.788 32.9438 35.3964C32.5591 35.0366 32.1603 34.2567 31.7476 33.0566C31.6909 32.8709 31.6342 32.6851 31.5776 32.4994C31.5461 32.2771 31.5146 32.0548 31.4831 31.8325C31.3301 30.7528 31.2837 29.4608 31.3436 27.9565C31.4288 26.4157 31.5939 24.7969 31.8391 23.1002C32.0797 21.3718 32.3693 19.6678 32.7079 17.9883C33.0465 16.309 33.418 14.7541 33.8222 13.324C34.2264 11.8938 34.6222 10.7249 35.0095 9.8173C35.3213 9.01942 35.8447 8.43083 36.5799 8.05153C37.3403 7.63564 38.0764 7.36989 38.7882 7.25429C39.4704 7.14349 40.0475 7.14724 40.5195 7.26553C40.9913 7.38383 41.1415 7.58686 40.9698 7.87464C40.1754 9.33568 39.3875 11.0556 38.6057 13.0344C37.8196 14.9814 37.1107 17.0459 36.4791 19.2277C35.8432 21.3778 35.3087 23.4952 34.8757 25.5797C34.4428 27.6643 34.1653 29.5612 34.0434 31.2705C33.9213 32.9797 33.9961 34.3646 34.2678 35.4251C34.3083 35.7109 34.1802 35.8779 33.8836 35.9261Z" fill="white"/>
    <path d="M31.6023 51.7099C31.454 51.734 31.3151 51.6104 31.1856 51.3391C31.0948 51.1263 30.9667 50.7573 30.8012 50.2318C30.6654 49.7016 30.5457 49.0713 30.4423 48.3408C30.2938 47.2929 30.1912 46.1399 30.1344 44.8821C30.0731 43.5925 30.0184 42.3505 29.9706 41.1562C29.9823 41.0244 29.8295 41.0167 29.5123 41.1332C29.1949 41.2497 28.9177 41.3272 28.6804 41.3658C28.4431 41.4043 28.3177 41.3759 28.3042 41.2806C28.2862 41.1537 28.4372 40.9342 28.7572 40.6223C29.1022 40.2739 29.4347 39.9437 29.7547 39.6318C30.0997 39.2834 30.2782 39.0433 30.2899 38.9114C30.4245 37.72 30.582 36.476 30.7625 35.1797C30.9384 33.8516 31.1109 32.6052 31.2796 31.4407C31.4736 30.2396 31.6501 29.2362 31.8091 28.4308C31.968 27.6252 32.083 27.1517 32.154 27.0102C32.4792 26.3076 32.9389 25.6969 33.533 25.178C34.1225 24.6274 34.6249 24.3184 35.0402 24.251C35.3664 24.198 35.552 24.3304 35.597 24.6479C35.624 24.8384 35.5733 25.1228 35.4448 25.5011C35.1834 26.2258 34.9534 27.1729 34.755 28.3422C34.552 29.4798 34.3751 30.6943 34.2243 31.9859C34.069 33.2457 33.9469 34.4188 33.8581 35.5054C33.7693 36.5919 33.7038 37.4147 33.6616 37.9739C34.6313 36.6794 35.7281 35.6402 36.9522 34.8567C38.2015 34.0365 39.7901 33.4699 41.7181 33.1568C44.4764 32.7087 46.6966 32.8518 48.3785 33.5857C50.0603 34.3198 50.9957 35.3536 51.1846 36.6876C51.3196 37.6402 51.0128 38.7947 50.2643 40.1509C49.5113 41.4753 48.1763 42.9753 46.2593 44.6512C45.4254 45.4039 44.3837 46.1903 43.1344 47.0105C41.8807 47.7989 40.5393 48.5042 39.1103 49.1261C37.6857 49.7798 36.2764 50.2198 34.8823 50.4462C34.4374 50.5185 34.0909 50.4285 33.8428 50.1764C33.6244 49.9195 33.4356 49.6579 33.2764 49.3913C33.1173 49.1247 32.8894 49.0155 32.5928 49.0637C32.4742 49.0829 32.3551 49.3135 32.2357 49.7552C32.1459 50.1922 32.0537 50.6132 31.9595 51.0184C31.8696 51.4553 31.7506 51.6858 31.6023 51.7099ZM35.4537 48.6965C36.1359 48.5857 36.9395 48.2603 37.8643 47.7202C38.7891 47.1801 39.7256 46.5082 40.6737 45.7045C41.6471 44.8641 42.5097 43.993 43.262 43.0912C44.1697 42.0017 44.8139 40.8736 45.1949 39.7071C45.5758 38.5406 45.7078 37.5445 45.5908 36.7188C45.4828 35.9566 45.1793 35.4211 44.6804 35.1123C44.1771 34.7717 43.169 34.7242 41.6563 34.9699C40.5589 35.1482 39.4017 35.5472 38.1848 36.1672C36.9634 36.7555 35.8763 37.4356 34.9236 38.2076C33.9665 38.9478 33.3231 39.6534 32.9932 40.3242C32.8505 41.0296 32.753 41.8414 32.7011 42.7596C32.6491 43.6777 32.6816 44.5496 32.7985 45.3753C32.938 46.3598 33.2078 47.1931 33.6078 47.8754C34.0376 48.5529 34.6529 48.8266 35.4537 48.6965Z" fill="white"/>
    <path d="M11.8125 26.4999C12.7445 26.4999 13.5 25.4214 13.5 24.0909C13.5 22.7603 12.7445 21.6818 11.8125 21.6818C10.8805 21.6818 10.125 22.7603 10.125 24.0909C10.125 25.4214 10.8805 26.4999 11.8125 26.4999Z" fill="white"/>
    <path d="M11.8125 34.9318C12.7445 34.9318 13.5 33.8532 13.5 32.5227C13.5 31.1922 12.7445 30.1136 11.8125 30.1136C10.8805 30.1136 10.125 31.1922 10.125 32.5227C10.125 33.8532 10.8805 34.9318 11.8125 34.9318Z" fill="white"/>
    <path d="M0.532844 27.6755C0.50646 26.411 0.622365 25.0448 0.880556 23.5767C1.37363 20.7817 2.15251 18.4718 3.21721 16.6471C4.28191 14.8224 5.51375 13.4576 6.91272 12.5527C8.31169 11.6477 9.75912 11.1773 11.255 11.1415C12.9608 11.1007 14.6384 11.5947 16.2878 12.6236C17.9371 13.6524 19.3871 15.1921 20.6377 17.2426C21.9146 19.2923 22.8202 21.8008 23.3548 24.7681C23.6227 26.2798 23.7744 27.8927 23.8102 29.6066C23.8372 30.8992 23.7842 32.1375 23.6513 33.3214C23.5448 34.5047 23.3691 35.5209 23.1243 36.3703C22.8799 37.2475 22.5511 37.8458 22.1377 38.1649C21.9832 38.3092 21.7616 38.3847 21.4729 38.3917C21.1055 38.4005 20.7884 38.3097 20.5219 38.1193C20.1768 39.1958 19.6596 40.2061 18.9704 41.1504C18.3075 42.094 17.5092 42.844 16.5755 43.4005C15.6425 43.985 14.5986 44.2912 13.4439 44.3188C12.3416 44.3452 11.2204 44.0909 10.0802 43.5558C8.35625 42.7256 6.78209 41.5263 5.35776 39.9579C3.93403 38.4176 2.7934 36.6035 1.93588 34.5155C1.05212 32.4281 0.584439 30.1482 0.532844 27.6755ZM1.80903 26.5485C1.85359 28.684 2.27574 30.67 3.07551 32.5063C3.9015 34.342 4.97212 35.947 6.28737 37.3211C7.62885 38.6947 9.08169 39.7423 10.6459 40.4639C11.256 40.7587 11.8377 40.9555 12.3911 41.0547C12.9452 41.182 13.4716 41.2397 13.9702 41.2278C15.3611 41.1946 16.5199 40.7311 17.4464 39.8374C18.3735 38.9718 19.0601 37.9012 19.5062 36.6254C19.979 35.3771 20.2025 34.1349 20.1767 32.8985C20.152 31.7183 19.9213 30.7258 19.4845 29.921C19.3473 29.6431 19.2768 29.4058 19.2726 29.2091C19.2656 28.872 19.3671 28.7009 19.577 28.6959C19.6558 28.6939 19.7392 28.9169 19.8272 29.3646C19.916 29.8404 20.007 30.4286 20.1004 31.1292C20.22 31.8291 20.3269 32.5434 20.4208 33.2722C20.5154 34.029 20.5945 34.6737 20.6581 35.2063C20.7485 35.7664 20.8217 36.1301 20.8778 36.2974C20.8964 35.9316 20.9153 35.5796 20.9345 35.2418C20.9537 34.904 20.9656 34.8475 20.9704 35.0722L20.9713 35.1144C20.9888 35.9575 20.9714 36.3795 20.9189 36.3807C20.9189 36.3807 20.9052 36.353 20.8778 36.2974C20.8574 36.579 20.8356 36.7904 20.8123 36.9316L21.0484 36.9259C21.6783 36.9109 22.1401 36.3937 22.4339 35.3747C22.7283 34.3836 22.8609 33.1857 22.8316 31.7807C22.8133 30.9097 22.7282 29.9699 22.5758 28.9615C22.4503 27.9805 22.2461 27.0014 21.9632 26.0243C21.2257 23.3992 20.2626 21.2857 19.0739 19.6836C17.9114 18.0808 16.6271 16.9308 15.2209 16.2335C13.841 15.5356 12.4557 15.2033 11.0648 15.2365C9.67385 15.2697 8.34217 15.625 7.06973 16.3019C5.82352 16.9784 4.75318 17.9036 3.8587 19.0777C2.99104 20.2791 2.40246 21.6426 2.09296 23.1682C1.88081 24.3259 1.78617 25.4526 1.80903 26.5485Z" fill="white"/>
    </svg>
    