<svg width="200" height="104" viewBox="0 0 200 104" fill="none" xmlns="http://www.w3.org/2000/svg">
    <path d="M1.56719 55.6443C1.52996 53.9779 1.69349 52.1776 2.05779 50.243C2.75348 46.5598 3.85243 43.516 5.35465 41.1116C6.85689 38.707 8.59492 36.9085 10.5688 35.716C12.5426 34.5235 14.5849 33.9036 16.6954 33.8565C19.1022 33.8027 21.4692 34.4536 23.7963 35.8095C26.1235 37.1652 28.1694 39.1941 29.9338 41.896C31.7354 44.5973 33.0132 47.9028 33.7675 51.813C34.1454 53.805 34.3595 55.9303 34.41 58.189C34.4481 59.8924 34.3733 61.5241 34.1859 63.0841C34.0356 64.6435 33.7876 65.9827 33.4422 67.1017C33.0975 68.2579 32.6335 69.0463 32.0502 69.4668C31.8322 69.657 31.5195 69.7565 31.1122 69.7655C30.5938 69.7771 30.1465 69.6576 29.7705 69.4066C29.2835 70.8252 28.5538 72.1566 27.5814 73.4009C26.646 74.6444 25.5197 75.6327 24.2024 76.366C22.8859 77.1363 21.413 77.5397 19.7838 77.5762C18.2286 77.6109 16.6467 77.2757 15.038 76.5708C12.6055 75.4766 10.3845 73.8963 8.37483 71.8295C6.36603 69.7998 4.75668 67.4092 3.54678 64.6578C2.29984 61.9071 1.63998 58.9027 1.56719 55.6443ZM3.36781 54.1592C3.43067 56.9733 4.0263 59.5903 5.15471 62.0101C6.32014 64.4292 7.83071 66.5441 9.68644 68.3549C11.5792 70.1649 13.6291 71.5454 15.836 72.4963C16.6968 72.8846 17.5176 73.1441 18.2984 73.2749C19.0802 73.4427 19.8229 73.5187 20.5263 73.503C22.4889 73.4592 24.1238 72.8484 25.4311 71.6708C26.7392 70.5301 27.7079 69.1192 28.3373 67.4381C29.0044 65.7931 29.3198 64.1562 29.2833 62.5268C29.2486 60.9717 28.923 59.6638 28.3067 58.6033C28.1132 58.2371 28.0136 57.9244 28.0078 57.6652C27.9979 57.2209 28.1411 56.9954 28.4373 56.9889C28.5484 56.9863 28.666 57.2801 28.7903 57.87C28.9156 58.4971 29.044 59.2722 29.1757 60.1954C29.3444 61.1177 29.4952 62.059 29.6278 63.0193C29.7613 64.0166 29.8729 64.8662 29.9625 65.5681C30.0902 66.306 30.1935 66.7854 30.2725 67.0058C30.2989 66.5236 30.3256 66.06 30.3527 65.6149C30.3797 65.1697 30.3965 65.0952 30.4032 65.3914L30.4044 65.447C30.4292 66.5579 30.4046 67.1141 30.3306 67.1157C30.3306 67.1157 30.3113 67.0792 30.2725 67.0058C30.2438 67.377 30.213 67.6555 30.1802 67.8416L30.5133 67.8341C31.4021 67.8143 32.0537 67.1328 32.4681 65.7898C32.8835 64.4839 33.0706 62.9054 33.0292 61.0539C33.0035 59.9062 32.8833 58.6677 32.6684 57.3389C32.4913 56.0462 32.2032 54.756 31.804 53.4684C30.7635 50.0092 29.4046 47.2241 27.7275 45.1128C26.0871 43.0008 24.2751 41.4854 22.2911 40.5665C20.3441 39.6468 18.3895 39.2089 16.427 39.2527C14.4645 39.2965 12.5856 39.7646 10.7903 40.6566C9.03198 41.5481 7.52181 42.7673 6.25975 44.3143C5.03556 45.8976 4.2051 47.6944 3.76841 49.7046C3.46908 51.2303 3.33554 52.715 3.36781 54.1592Z" fill="#29011D"/>
    <path d="M62.6295 28.9908C61.8344 29.1114 61.1794 29.1679 60.6646 29.1604C60.1916 29.1465 59.823 29.1168 59.5594 29.0711C58.8098 28.9279 58.4224 28.7727 58.397 28.6052C58.3398 28.2287 60.4456 27.7166 64.7141 27.0692C67.0159 26.72 69.1559 26.0101 71.1341 24.9393C73.1122 23.8687 74.8705 22.6174 76.4086 21.1854C77.9821 19.7051 79.2741 18.2033 80.2846 16.6801C81.2887 15.1149 81.95 13.6875 82.2681 12.3977C82.4467 11.6 82.4979 10.95 82.4217 10.4478C82.206 9.02492 81.3878 7.86467 79.9673 6.96702C78.5822 6.02116 76.7927 5.37215 74.5987 5.01994C72.4046 4.66775 69.9684 4.69477 67.2902 5.10102C64.9884 5.45015 62.5668 6.13854 60.0256 7.16619C57.5198 8.14565 55.0743 9.52267 52.6892 11.2973C52.4216 11.5091 52.064 11.6918 51.6163 11.8453C51.1624 11.957 50.6843 12.0509 50.1821 12.1271C49.5543 12.2223 48.9589 12.2484 48.3959 12.2054C47.8746 12.156 47.5949 12.0057 47.5568 11.7546C47.506 11.4198 47.8465 10.9829 48.5781 10.4438C51.1535 8.51192 53.9179 6.9795 56.8714 5.84651C59.8248 4.71354 62.7664 3.92488 65.6957 3.48054C68.5414 3.04889 71.2821 2.91148 73.9173 3.0683C76.5527 3.22513 78.9268 3.63564 81.0397 4.29983C83.1463 4.92218 84.8389 5.77856 86.1173 6.869C87.4314 7.91124 88.1932 9.12288 88.4025 10.5039C88.5168 11.2572 88.4429 12.0391 88.1805 12.8495C87.6684 14.554 86.5222 16.3119 84.7419 18.1231C82.9554 19.8927 80.7459 21.5549 78.1133 23.1101C75.4808 24.6654 72.6427 25.9949 69.5992 27.0987C68.0535 27.6328 66.7041 28.0516 65.5514 28.3549C64.4405 28.6519 63.4665 28.8638 62.6295 28.9908ZM52.5695 47.3419C52.2346 47.3927 51.7927 47.16 51.2435 46.6439C50.7006 46.1698 50.1379 45.142 49.5556 43.5606C49.4757 43.3158 49.3957 43.0711 49.3159 42.8263C49.2714 42.5335 49.227 42.2404 49.1825 41.9476C48.9667 40.5247 48.9011 38.8222 48.9857 36.84C49.1059 34.8095 49.3389 32.6763 49.6848 30.4404C50.0243 28.1628 50.4329 25.9174 50.9106 23.7043C51.3884 21.4912 51.9124 19.4424 52.4829 17.5577C53.0532 15.6731 53.6116 14.1328 54.1579 12.9368C54.5979 11.8854 55.3365 11.1098 56.3738 10.6099C57.4465 10.0619 58.4852 9.7117 59.4895 9.55937C60.4521 9.41337 61.2662 9.4183 61.9321 9.57418C62.5979 9.73007 62.8097 9.99762 62.5676 10.3768C61.4468 12.3021 60.3349 14.5686 59.2321 17.1762C58.1229 19.7419 57.1227 22.4624 56.2316 25.3374C55.3341 28.1708 54.58 30.9609 53.9692 33.7079C53.3584 36.4549 52.967 38.9546 52.7948 41.207C52.6227 43.4593 52.7283 45.2843 53.1114 46.6817C53.1686 47.0584 52.9879 47.2784 52.5695 47.3419Z" fill="#29011D"/>
    <path d="M49.3506 101.475C49.1414 101.506 48.9454 101.344 48.7627 100.986C48.6346 100.706 48.4538 100.219 48.2203 99.5269C48.0287 98.8281 47.8598 97.9975 47.7139 97.035C47.5044 95.654 47.3597 94.1347 47.2795 92.4772C47.193 90.7778 47.1159 89.1412 47.0484 87.5674C47.0649 87.3937 46.8493 87.3835 46.4017 87.537C45.9539 87.6905 45.5628 87.7927 45.2281 87.8435C44.8932 87.8943 44.7163 87.8569 44.6973 87.7313C44.6719 87.564 44.8849 87.2748 45.3363 86.8639C45.8232 86.4047 46.2924 85.9696 46.7438 85.5586C47.2306 85.0994 47.4824 84.7831 47.4989 84.6093C47.6889 83.0393 47.9111 81.4 48.1657 79.6918C48.4139 77.9416 48.6573 76.2993 48.8954 74.7647C49.169 73.182 49.4181 71.8597 49.6424 70.7983C49.8666 69.7367 50.0289 69.1127 50.129 68.9264C50.5879 68.0005 51.2365 67.1958 52.0747 66.512C52.9065 65.7864 53.6154 65.3793 54.2013 65.2904C54.6616 65.2205 54.9235 65.395 54.987 65.8134C55.0251 66.0645 54.9535 66.4393 54.7722 66.9377C54.4033 67.8927 54.0789 69.1407 53.7989 70.6816C53.5125 72.1807 53.2628 73.7812 53.0501 75.4831C52.8309 77.1432 52.6587 78.6891 52.5335 80.121C52.4081 81.5527 52.3157 82.637 52.2562 83.3739C53.6244 81.668 55.1719 80.2986 56.899 79.2661C58.6617 78.1853 60.9032 77.4386 63.6233 77.0261C67.5152 76.4356 70.6478 76.6242 73.0208 77.5913C75.3936 78.5586 76.7135 79.921 76.98 81.6788C77.1705 82.9342 76.7376 84.4555 75.6816 86.2426C74.619 87.9878 72.7355 89.9645 70.0308 92.1729C68.8541 93.1648 67.3844 94.2012 65.6217 95.282C63.8528 96.3208 61.9601 97.2502 59.9439 98.0697C57.9339 98.9312 55.9455 99.511 53.9786 99.8094C53.3508 99.9047 52.8619 99.7861 52.5119 99.4539C52.2036 99.1153 51.9373 98.7705 51.7127 98.4193C51.4882 98.068 51.1666 97.924 50.7482 97.9875C50.5808 98.0129 50.4128 98.3167 50.2443 98.8988C50.1176 99.4747 49.9876 100.029 49.8546 100.563C49.7278 101.139 49.5598 101.443 49.3506 101.475ZM54.7847 97.5037C55.7473 97.3577 56.8811 96.9289 58.1859 96.2172C59.4908 95.5054 60.812 94.6201 62.1498 93.561C63.5232 92.4535 64.7403 91.3056 65.8017 90.1172C67.0824 88.6815 67.9914 87.195 68.5289 85.6578C69.0663 84.1207 69.2525 82.808 69.0874 81.7199C68.9351 80.7156 68.507 80.0099 67.803 79.6029C67.0928 79.1542 65.6705 79.0915 63.5362 79.4153C61.9878 79.6502 60.3551 80.1761 58.6381 80.9931C56.9147 81.7683 55.3809 82.6645 54.0368 83.6818C52.6863 84.6572 51.7786 85.587 51.3132 86.471C51.1117 87.4005 50.9743 88.4704 50.9009 89.6802C50.8276 90.8901 50.8735 92.0391 51.0384 93.1272C51.2352 94.4245 51.6159 95.5226 52.1803 96.4216C52.7866 97.3145 53.6549 97.6751 54.7847 97.5037Z" fill="#29011D"/>
    <path d="M100.824 100.395C100.401 100.398 100.25 99.9968 100.372 99.1917C100.576 97.963 100.717 96.7346 100.794 95.5065C100.913 94.2358 100.97 93.135 100.964 92.2038C100.958 91.3149 100.89 90.5957 100.76 90.0463C100.671 89.4542 100.479 89.1592 100.183 89.1609C100.056 89.1617 99.8659 89.2265 99.6127 89.355C99.4017 89.4833 99.0224 89.7396 98.4746 90.1239C97.5476 90.8069 96.3459 91.5552 94.8694 92.3685C93.4352 93.1817 91.8741 93.9957 90.186 94.8103C88.4979 95.625 86.8519 96.3973 85.2479 97.1268C83.644 97.8563 82.2089 98.5212 80.9427 99.1217C80.2249 99.4225 79.4005 99.5757 78.4694 99.5816C77.4111 99.5881 76.4365 99.4249 75.5455 99.0917C74.6967 98.716 74.2698 98.1473 74.2651 97.3854C74.2586 96.3271 74.6308 94.9068 75.3816 93.1244C76.1325 91.3419 77.2846 89.4089 78.8378 87.325C80.3908 85.199 82.3252 83.1552 84.6411 81.1936C86.199 79.8719 87.8435 78.8246 89.5741 78.0519C91.3048 77.2793 93.186 76.8866 95.2178 76.8741C96.2759 76.8674 97.3984 76.9876 98.5851 77.2341C99.7719 77.4808 100.769 77.8979 101.577 78.4854C102.427 79.0728 102.856 79.8955 102.862 80.9538C102.867 81.7155 102.68 82.2671 102.301 82.6081C101.964 82.9065 101.605 83.0568 101.224 83.0592C100.717 83.0623 100.08 82.8546 99.3157 82.436C98.5936 82.0173 97.6187 81.8117 96.3913 81.8192C95.5024 81.8247 94.5933 81.9785 93.664 82.2806C92.7343 82.5403 91.7 82.9912 90.5611 83.6331C88.6209 84.7458 86.893 85.9628 85.3773 87.2844C83.8614 88.5638 82.6628 89.8198 81.7816 91.0528C80.9427 92.2857 80.5259 93.3465 80.5314 94.2354C80.5354 94.8703 80.7502 95.3768 81.1759 95.7552C81.6438 96.1331 82.2163 96.3201 82.8936 96.316C83.9517 96.3093 85.1773 95.9842 86.5701 95.3408C87.9627 94.6549 89.2919 93.9693 90.5575 93.2842C93.1732 91.8711 95.1551 90.6736 96.5036 89.6917C97.8943 88.7095 98.9478 87.9411 99.664 87.3863C100.422 86.789 101.139 86.3825 101.815 86.1666C101.942 86.1235 102.175 86.1009 102.513 86.0988C103.19 86.0946 103.932 86.2382 104.738 86.5295C105.586 86.7782 105.99 87.0296 105.949 87.2839C105.954 88.0458 105.705 88.9361 105.204 89.9552C104.702 90.9319 104.286 92.0985 103.956 93.455C103.75 94.3876 103.607 95.235 103.527 95.9974C103.489 96.7173 103.283 97.6922 102.91 98.922C102.869 99.0915 102.595 99.3684 102.09 99.7525C101.585 100.179 101.163 100.393 100.824 100.395ZM111.461 99.6944C111.292 99.6955 110.995 99.5703 110.57 99.319C110.145 99.11 109.741 98.8162 109.358 98.4376C109.017 98.0165 108.845 97.5942 108.842 97.1709C108.835 95.9857 109.016 94.5243 109.387 92.7865C109.799 91.0062 110.338 89.1403 111.003 87.189C111.668 85.1955 112.376 83.3498 113.127 81.652C113.461 80.9303 113.924 80.4406 114.515 80.183C115.106 79.883 115.74 79.7309 116.417 79.7268C117.39 79.7208 118.302 79.969 119.152 80.4717C120.001 80.9744 120.429 81.6279 120.434 82.432C120.436 82.8554 120.291 83.2795 119.997 83.7046C119.787 84.0022 119.536 84.4271 119.243 84.9792C118.95 85.489 118.699 85.9561 118.49 86.3808C118.239 86.8903 118.177 87.1446 118.304 87.1438C118.347 87.1435 118.557 86.9517 118.936 86.5684C119.777 85.759 120.915 84.9265 122.349 84.0711C123.825 83.173 125.344 82.4228 126.906 81.8204C128.468 81.1758 129.821 80.85 130.964 80.843C132.657 80.8325 134.036 81.3106 135.1 82.2776C136.206 83.202 137.018 84.4033 137.535 85.8817C138.052 87.36 138.315 88.8822 138.325 90.4482C138.342 93.2419 137.721 95.4679 136.462 97.1266C136.294 97.3815 135.958 97.7435 135.453 98.2122C134.947 98.6811 134.568 98.9161 134.314 98.9177C134.187 98.9185 134.123 98.8342 134.122 98.6649C134.121 98.5803 134.121 98.4957 134.12 98.4109C134.162 98.3262 134.204 98.22 134.245 98.0928C134.578 97.1595 134.826 96.142 134.988 95.0404C135.193 93.9387 135.292 92.8374 135.285 91.7369C135.277 90.3401 135.057 89.0293 134.626 87.8044C134.237 86.5793 133.554 85.5889 132.576 84.833C131.64 84.0769 130.347 83.7039 128.696 83.7142C126.114 83.7303 123.876 84.5484 121.981 86.1685C120.128 87.7885 118.28 90.0435 116.435 92.9333C115.01 95.1431 113.941 96.8219 113.228 97.9692C112.516 99.1165 111.927 99.6915 111.461 99.6944ZM149.274 99.9044C148.724 99.9077 148.15 99.4246 147.551 98.4547C146.995 97.4846 146.713 96.4069 146.706 95.2217C146.704 94.9677 146.722 94.3963 146.758 93.5071C146.795 92.5757 146.831 91.5808 146.867 90.5223C146.945 89.4212 147.023 88.426 147.102 87.5366C147.224 86.6469 147.326 86.096 147.41 85.8839C147.577 85.5442 147.427 85.3123 146.961 85.1882C146.536 85.0215 146.112 84.8549 145.688 84.6882C145.263 84.5215 145.114 84.2685 145.239 83.929C145.364 83.632 145.553 83.4403 145.807 83.3541C146.06 83.2679 146.335 83.2238 146.631 83.222C146.927 83.2201 147.139 83.24 147.266 83.2815C147.436 83.2804 147.584 83.2584 147.71 83.2154C147.919 82.6638 148.273 81.7515 148.773 80.4785C149.273 79.2055 149.856 77.7415 150.523 76.0866C151.233 74.4314 152.005 72.7334 152.841 70.9928C153.719 69.2519 154.64 67.6165 155.604 66.0866C156.191 65.1095 157.033 64.4482 158.132 64.1027C159.23 63.7149 160.287 63.5179 161.303 63.5115C162.319 63.5054 163.144 63.6484 163.781 63.9408C164.417 64.1908 164.589 64.486 164.295 64.8265C162.573 66.9958 161.041 69.143 159.7 71.2677C158.359 73.3925 157.228 75.3466 156.308 77.1301C155.387 78.8714 154.656 80.315 154.112 81.4612C153.612 82.6073 153.32 83.2863 153.236 83.4985C153.657 83.1573 154.944 82.5355 157.098 81.6333C159.251 80.6887 162.017 79.8249 165.398 79.042C166.033 78.8689 166.667 78.7803 167.302 78.7763C168.444 78.7692 169.017 78.9561 169.021 79.3371C169.021 79.5063 168.768 79.7196 168.262 79.9766C167.798 80.1912 167.016 80.3865 165.916 80.5627C164.69 80.7396 163.402 81.1285 162.051 81.7295C160.741 82.2879 159.581 82.8877 158.57 83.529C157.6 84.1276 156.989 84.5758 156.737 84.8736C156.823 85.1271 157.186 85.6328 157.826 86.3908C158.507 87.1484 159.317 88.0323 160.254 89.0423C161.235 90.0522 162.214 91.062 163.194 92.0719C164.216 93.0814 165.111 93.9647 165.878 94.7219C166.644 95.4792 167.156 95.9839 167.411 96.2363C168.176 96.9087 168.71 97.4557 169.008 97.8771C169.349 98.2984 169.521 98.6147 169.522 98.8263C169.524 99.0803 169.333 99.2085 168.952 99.2109C168.53 99.2135 167.957 99.0901 167.237 98.8406C166.514 98.5487 165.794 98.1935 165.071 97.7746C163.84 97.0627 162.5 96.1609 161.054 95.0693C159.651 93.9774 158.289 92.8854 156.97 91.793C155.693 90.6581 154.587 89.6914 153.65 88.8928C152.756 88.0519 152.203 87.5473 151.99 87.3793C150.986 89.3327 150.299 91.0512 149.927 92.535C149.597 93.9763 149.436 95.2471 149.443 96.3477C149.446 96.8979 149.492 97.4268 149.58 97.9341C149.667 98.4416 149.755 98.9277 149.843 99.3928L149.843 99.4563C149.845 99.7527 149.655 99.902 149.274 99.9044Z" fill="#29011D"/>
    <path d="M92.0827 23.4098C91.6594 23.4125 91.3417 23.372 91.1295 23.2887C90.9171 23.1631 90.7046 23.0163 90.4919 22.8482C90.2363 22.5958 89.9382 22.3014 89.5975 21.9649C89.2565 21.586 89.0852 21.2696 89.0836 21.0157C89.0824 20.8041 89.2086 20.6763 89.4622 20.6323C91.659 19.9415 93.3078 19.5926 94.4082 19.5858C95.0854 19.5815 95.5941 19.6842 95.934 19.8938C96.316 20.0607 96.6351 20.3128 96.8911 20.6498C96.976 20.6915 97.1254 20.9023 97.3394 21.282C97.5532 21.6193 97.6603 21.8303 97.6608 21.9149C97.6627 22.2112 97.3041 22.4039 96.5851 22.493C95.866 22.5822 95.274 22.6704 94.8089 22.758C94.3443 22.9301 93.8797 23.0812 93.4148 23.2111C92.9924 23.3407 92.5483 23.4069 92.0827 23.4098ZM91.0805 46.0831C90.8265 46.0847 90.5287 45.8538 90.1871 45.3903C89.8457 44.9268 89.504 44.4209 89.1619 43.8728C88.3062 42.3966 87.5984 40.8771 87.0384 39.3144C86.4784 37.7517 86.194 36.2507 86.1851 34.8117C86.1768 33.4995 86.4232 32.2704 86.9241 31.1246C87.4249 29.9785 88.2232 28.9999 89.3186 28.189C89.9503 27.6771 90.8589 27.4176 92.044 27.4101C92.7636 27.4057 93.3994 27.55 93.9514 27.8428C94.5033 28.0933 94.7814 28.5784 94.7859 29.2979C94.7902 29.9752 94.4994 30.8658 93.9136 31.9701C93.3702 33.0739 92.8695 34.2623 92.4119 35.535C92.1629 36.3407 91.957 37.2733 91.7943 38.3325C91.6738 39.3915 91.639 40.598 91.6897 41.9523C91.6916 42.2485 91.6933 42.5238 91.6949 42.7777C91.7386 42.989 91.7609 43.2006 91.7622 43.4122C91.7682 44.3857 91.7092 45.0846 91.5848 45.5085C91.4602 45.8903 91.2921 46.0819 91.0805 46.0831ZM111.994 60.2395C110.259 60.2503 108.712 59.9423 107.353 59.3158C105.995 58.7317 104.932 57.9763 104.165 57.0498C103.397 56.1233 103.01 55.1946 103.004 54.2633C102.997 53.0782 103.647 52.1006 104.954 51.3306C105.165 51.2022 105.357 51.4126 105.53 51.9619C105.745 52.5109 106.045 53.165 106.431 53.9246C106.859 54.7261 107.52 55.4206 108.412 56.0076C109.305 56.6369 110.556 56.9468 112.164 56.9368C114.534 56.922 116.499 56.3596 118.058 55.2493C119.618 54.1815 120.858 52.7558 121.778 50.9722C122.741 49.2307 123.406 47.3219 123.774 45.2455C124.142 43.169 124.278 41.1576 124.181 39.2111C124.181 39.2111 124.116 38.9152 123.985 38.3234C123.855 37.7315 123.744 36.9704 123.654 36.0396C123.57 36.2095 123.423 36.4009 123.213 36.6139C123.045 36.7842 122.855 36.9336 122.644 37.0619C121.464 37.958 120.031 38.8347 118.343 39.6917C116.655 40.5488 114.904 41.385 113.089 42.2006C111.273 43.0161 109.543 43.7676 107.896 44.455C106.292 45.1422 104.92 45.7433 103.78 46.2584C103.189 46.5584 102.365 46.7115 101.307 46.7182C100.249 46.7247 99.2738 46.5192 98.3822 46.1014C97.4484 45.6839 96.979 45.073 96.974 44.2688C96.9671 43.1682 97.3817 41.7477 98.2175 40.0071C99.0106 38.2242 100.121 36.3761 101.548 34.4625C102.975 32.5065 104.594 30.7398 106.404 29.1623C108.509 27.3292 110.47 26.026 112.285 25.2528C114.1 24.4373 116.066 24.023 118.182 24.0099C118.521 24.0077 118.881 24.0268 119.262 24.0666C119.643 24.0644 120.024 24.0831 120.405 24.1231C121.167 24.1184 121.824 24.2625 122.376 24.5553C122.928 24.8058 123.416 25.0357 123.841 25.2447C123.794 24.5253 123.875 23.9746 124.084 23.5923C124.336 23.2098 124.525 23.0182 124.652 23.0174C125.626 23.0114 126.537 23.1961 127.386 23.5719C128.277 23.9473 129 24.4084 129.553 24.9552C130.149 25.5019 130.47 26.0501 130.516 26.6001C130.561 27.0231 130.585 27.4463 130.587 27.8695C130.632 28.2503 130.656 28.6522 130.658 29.0755C130.675 31.7422 130.395 34.4317 129.819 37.1444C129.243 39.8146 128.455 42.4015 127.455 44.9052C126.497 47.3661 125.41 49.6163 124.195 51.6557C122.477 54.5023 120.713 56.6298 118.901 58.0379C117.09 59.4882 114.788 60.2222 111.994 60.2395ZM105.731 43.389C106.831 43.3822 108.078 43.0571 109.471 42.4134C110.864 41.77 112.172 41.1269 113.395 40.4844C120.019 36.8876 123.412 34.6231 123.576 33.6909C123.783 32.9701 123.885 32.398 123.882 31.9747C123.88 31.5092 123.77 30.9171 123.554 30.199C123.292 28.846 122.335 28.1747 120.684 28.1849C119.88 28.1899 118.866 28.4079 117.641 28.8387C116.416 29.2273 115.002 29.8922 113.399 30.8333C111.459 31.946 109.71 33.1631 108.152 34.485C106.636 35.7642 105.437 37.0204 104.556 38.2534C103.717 39.4438 103.3 40.4623 103.305 41.3088C103.309 41.9861 103.545 42.5138 104.013 42.8917C104.481 43.2276 105.053 43.3933 105.731 43.389ZM147.77 60.0176C146.034 60.0284 144.487 59.7204 143.129 59.0939C141.771 58.5098 140.708 57.7544 139.94 56.828C139.173 55.9015 138.786 54.9726 138.78 54.0415C138.773 52.8563 139.423 51.8787 140.73 51.1087C140.941 50.9804 141.133 51.1909 141.305 51.7401C141.52 52.289 141.821 52.9433 142.207 53.7028C142.635 54.5044 143.295 55.1987 144.188 55.7857C145.08 56.4152 146.331 56.7249 147.94 56.7149C150.31 56.7001 152.275 56.1377 153.834 55.0276C155.393 53.9596 156.633 52.5339 157.554 50.7504C158.516 49.009 159.183 47.1 159.549 45.0236C159.917 42.9473 160.054 40.9358 159.957 38.9892C159.957 38.9892 159.892 38.6933 159.76 38.1015C159.63 37.5098 159.519 36.7485 159.429 35.8179C159.346 35.9877 159.198 36.179 158.989 36.392C158.821 36.5623 158.631 36.7117 158.42 36.8399C157.24 37.7361 155.806 38.6128 154.119 39.4699C152.431 40.3269 150.679 41.1631 148.864 41.9787C147.049 42.7942 145.318 43.5457 143.672 44.2331C142.067 44.9204 140.695 45.5215 139.556 46.0365C138.965 46.3365 138.141 46.4898 137.082 46.4963C136.024 46.5028 135.049 46.2973 134.158 45.8795C133.224 45.462 132.755 44.8512 132.75 44.0469C132.743 42.9465 133.157 41.5258 133.993 39.7852C134.786 38.0025 135.897 36.1542 137.324 34.2406C138.751 32.2846 140.37 30.5179 142.18 28.9406C144.285 27.1074 146.245 25.8041 148.061 25.0309C149.876 24.2155 151.841 23.8012 153.958 23.788C154.296 23.786 154.656 23.8049 155.037 23.8449C155.418 23.8425 155.8 23.8612 156.181 23.9012C156.943 23.8965 157.6 24.0406 158.152 24.3334C158.703 24.5841 159.192 24.8138 159.616 25.0228C159.57 24.3034 159.651 23.7526 159.86 23.3704C160.111 22.9879 160.302 22.7963 160.429 22.7955C161.402 22.7895 162.313 22.9742 163.162 23.3499C164.052 23.7255 164.775 24.1866 165.329 24.7334C165.925 25.2799 166.246 25.8282 166.292 26.3782C166.337 26.8012 166.36 27.2244 166.363 27.6477C166.408 28.0284 166.432 28.4304 166.433 28.8536C166.451 31.5203 166.171 34.2098 165.595 36.9225C165.019 39.5928 164.23 42.1796 163.23 44.6833C162.271 47.1444 161.186 49.3946 159.97 51.4338C158.253 54.2804 156.488 56.4079 154.677 57.816C152.866 59.2665 150.563 60.0003 147.77 60.0176ZM141.506 43.1673C142.607 43.1604 143.853 42.8352 145.246 42.1915C146.639 41.548 147.947 40.905 149.171 40.2625C155.794 36.6658 159.187 34.4014 159.351 33.469C159.559 32.7482 159.66 32.1761 159.659 31.7528C159.656 31.2872 159.546 30.6953 159.33 29.9771C159.067 28.6242 158.111 27.9528 156.46 27.9631C155.656 27.968 154.641 28.186 153.416 28.6169C152.191 29.0055 150.777 29.6703 149.175 30.6115C147.234 31.7241 145.485 32.9412 143.927 34.2631C142.411 35.5423 141.213 36.7985 140.332 38.0315C139.492 39.222 139.075 40.2404 139.081 41.0869C139.085 41.7642 139.321 42.2919 139.789 42.6699C140.257 43.0057 140.829 43.1714 141.506 43.1673ZM176.737 57.4887C176.441 57.4906 176.292 57.3433 176.29 57.0469C176.289 56.7931 176.392 56.4114 176.6 55.9022C176.81 55.4353 177.06 54.8834 177.352 54.2468C178.314 52.336 179.256 50.5523 180.176 48.8958C181.14 47.239 182.103 45.6457 183.067 44.1158C181.113 42.985 179.37 41.6838 177.837 40.2117C176.346 38.7395 175.067 37.3082 174 35.9179C172.976 34.5274 172.186 33.3471 171.629 32.3771C171.114 31.4066 170.857 30.8792 170.857 30.7946C170.856 30.5828 171.046 30.4123 171.425 30.283C171.848 30.1534 172.313 30.0658 172.821 30.0204C173.371 29.9747 173.837 29.9506 174.217 29.9482C174.64 29.9457 174.852 29.9442 174.852 29.9442C175.592 33.1568 176.837 35.858 178.584 38.0484C180.376 40.196 182.163 41.7722 183.948 42.7771C185.708 39.9723 187.171 37.1273 188.34 34.2417C189.549 31.3134 190.735 28.0046 191.897 24.3147C191.895 24.1877 192.065 24.1231 192.403 24.1211C192.827 24.1184 193.421 24.2206 194.183 24.4274C194.989 24.6341 195.773 24.9255 196.538 25.3019C197.344 25.6353 197.981 26.0336 198.451 26.4963C198.96 26.9165 199.154 27.3385 199.03 27.7626C198.281 29.9684 197.216 32.3453 195.835 34.8936C194.454 37.3996 192.903 39.8855 191.183 42.3512C189.505 44.7744 187.805 47.0284 186.083 49.1131C184.36 51.1979 182.783 52.9431 181.352 54.3488C179.965 55.7544 178.87 56.6501 178.068 57.036C177.476 57.336 177.033 57.4868 176.737 57.4887Z" fill="#29011D"/>
    <path d="M17.4821 54.0953C18.7971 54.0953 19.863 52.674 19.863 50.9207C19.863 49.1674 18.7971 47.7461 17.4821 47.7461C16.1671 47.7461 15.1011 49.1674 15.1011 50.9207C15.1011 52.674 16.1671 54.0953 17.4821 54.0953Z" fill="#29011D"/>
    <path d="M17.4821 65.2064C18.7971 65.2064 19.863 63.7851 19.863 62.0318C19.863 60.2785 18.7971 58.8572 17.4821 58.8572C16.1671 58.8572 15.1011 60.2785 15.1011 62.0318C15.1011 63.7851 16.1671 65.2064 17.4821 65.2064Z" fill="#29011D"/>
    </svg>
    